<svg width="24" height="24" viewBox="0 0 24 24" fill="none" xmlns="http://www.w3.org/2000/svg">
<path d="M20.79 2.63C20.27 1.62 19.25 1 18.12 1H5.88999C4.75999 1 3.72999 1.63 3.21999 2.63C2.70999 3.63 2.79999 4.83 3.44999 5.74L7.81999 11.86C7.93999 12.03 8.00999 12.23 8.00999 12.44V19.05C8.00999 20.12 8.50999 21.11 9.35999 21.7C9.85999 22.05 10.43 22.23 11.01 22.23C11.34 22.23 11.67 22.17 11.98 22.06L13.98 21.34C15.19 20.9 16.01 19.69 16.01 18.33V12.45C16.01 12.24 16.07 12.04 16.2 11.87L20.57 5.75C21.23 4.83 21.32 3.64 20.8 2.64L20.79 2.63ZM18.93 4.58L14.56 10.7C14.19 11.21 14 11.81 14 12.44V18.32C14 18.84 13.71 19.29 13.29 19.45L11.29 20.17C10.93 20.3 10.64 20.16 10.49 20.06C10.18 19.84 9.99999 19.47 9.99999 19.05V12.44C9.99999 11.81 9.80999 11.21 9.43999 10.7L5.06999 4.58C4.74999 4.14 4.90999 3.71 4.98999 3.55C5.16999 3.21 5.49999 3 5.88999 3H18.11C18.5 3 18.83 3.2 19.01 3.55C19.09 3.71 19.25 4.14 18.93 4.58Z" fill="black"/>
</svg>
