<svg width="1024" height="1024" viewBox="0 0 1024 1024" fill="none" xmlns="http://www.w3.org/2000/svg">
<g clip-path="url(#clip0_93_2672)">
<rect width="1024" height="1024" fill="white"/>
<path d="M291.77 281.98C291.781 281.956 291.786 281.93 291.784 281.904C291.783 281.878 291.775 281.852 291.761 281.829C291.748 281.805 291.729 281.785 291.706 281.77C291.683 281.755 291.657 281.744 291.63 281.74C281.043 280.327 273.217 275.45 268.15 267.11C261.71 256.52 259.12 236.47 270.06 227.63C270.333 227.403 270.39 227.13 270.23 226.81C265.823 217.91 265.28 208.873 268.6 199.7C272.56 188.74 283.76 182.76 295.09 185.7C295.403 185.78 295.617 185.673 295.73 185.38C296.937 182.207 298.703 179.143 301.03 176.19C306.85 168.79 317.37 164.91 326.23 167.76C326.61 167.887 326.94 167.803 327.22 167.51C334.647 159.85 343.863 156.98 354.87 158.9C355.363 158.987 355.83 158.91 356.27 158.67C366.33 153.21 377.63 154.2 386.25 161.91C386.423 162.064 386.63 162.173 386.853 162.227C387.077 162.281 387.309 162.278 387.53 162.22C394.463 160.347 400.963 161.523 407.03 165.75C415.63 171.75 418.82 185.32 419.77 195.31C419.81 195.69 420.007 195.943 420.36 196.07C421.147 196.363 421.977 196.607 422.85 196.8C429.41 198.23 434.56 204.07 436.3 210.15C438.313 217.21 438.1 224.393 435.66 231.7C435.147 233.247 434.967 234.743 435.12 236.19C437.13 254.57 428.49 270.36 409.72 274.35C409.3 274.437 409.063 274.693 409.01 275.12C407.757 285.1 401.987 291.663 391.7 294.81C383.86 297.21 375.28 297.31 365.6 297.08C363.433 297.027 361.25 296.66 359.05 295.98C358.763 295.892 358.46 295.871 358.164 295.918C357.868 295.965 357.586 296.078 357.34 296.25C354.473 298.263 351.32 299.82 347.88 300.92C334.747 305.1 321.193 305.93 307.22 303.41C296.97 301.56 286.67 293.59 291.77 281.98ZM371.73 172.07C372.03 172.703 372.38 172.73 372.78 172.15C375.187 168.67 378.33 166.093 382.21 164.42C382.265 164.397 382.312 164.36 382.348 164.313C382.383 164.266 382.406 164.209 382.413 164.15C382.42 164.09 382.411 164.029 382.388 163.973C382.365 163.917 382.327 163.868 382.28 163.83C375.693 158.697 368.603 157.62 361.01 160.6C360.943 160.626 360.885 160.672 360.844 160.732C360.804 160.792 360.782 160.863 360.782 160.935C360.782 161.007 360.804 161.078 360.844 161.138C360.885 161.197 360.943 161.243 361.01 161.27C365.67 163.183 369.243 166.783 371.73 172.07ZM329.67 219.72C329.097 220.473 327.977 220.56 326.31 219.98C326.065 219.894 325.838 219.765 325.64 219.6C322.02 216.64 319.383 212.85 317.73 208.23C317.629 207.953 317.434 207.72 317.18 207.572C316.926 207.424 316.629 207.37 316.34 207.42C315.547 207.553 314.76 207.753 313.98 208.02C311.39 208.91 311.62 212.41 313.23 214.08C314.243 215.14 314.25 216.203 313.25 217.27L313 217.54C312.68 217.88 312.243 218.086 311.777 218.116C311.31 218.145 310.85 217.997 310.49 217.7C307.817 215.527 306.977 212.76 307.97 209.4C309.09 205.62 311.69 203.49 315.77 203.01C316.25 202.957 316.5 202.687 316.52 202.2C316.54 201.747 316.447 201.313 316.24 200.9C315.98 200.4 315.567 200.127 315 200.08C313.253 199.933 311.877 199.497 310.87 198.77C301.15 191.8 290.77 184.6 279.37 191.95C268.05 199.24 267.73 217.49 275.22 227.07C275.298 227.17 275.355 227.285 275.387 227.408C275.418 227.532 275.425 227.66 275.405 227.785C275.385 227.911 275.34 228.031 275.272 228.139C275.204 228.246 275.115 228.338 275.01 228.41C265.81 234.62 265.18 245.75 267.63 255.74C270.78 268.55 278.86 276.43 292.57 278.17C295.22 278.5 298.16 276.39 300.84 275.82C301.301 275.723 301.781 275.772 302.212 275.961C302.644 276.149 303.007 276.466 303.25 276.87L303.54 277.35C304.32 278.643 304.017 279.59 302.63 280.19C300.55 281.09 297.97 281.42 296.47 283.25C293.91 286.36 293.94 290.44 296.46 293.5C300.36 298.21 306.62 299.96 312.58 300.63C326.74 302.23 339.763 300.523 351.65 295.51C352.87 294.997 352.847 294.547 351.58 294.16C347.793 293.013 344.847 290.95 342.74 287.97C342.651 287.84 342.519 287.746 342.367 287.704C342.215 287.662 342.053 287.675 341.91 287.74C337.15 289.853 332.207 291.337 327.08 292.19C326.669 292.256 326.248 292.183 325.884 291.984C325.52 291.785 325.234 291.47 325.07 291.09L324.67 290.16C324.303 289.313 324.573 288.793 325.48 288.6C329.5 287.767 333.353 286.59 337.04 285.07C345.45 281.6 348.42 273.31 350.02 265.06C351.693 256.467 354.203 248.967 357.55 242.56C358.71 240.33 361.51 241.59 362.08 243.42C362.139 243.609 362.152 243.81 362.119 244.006C362.086 244.203 362.008 244.389 361.89 244.55C357.34 250.83 355.54 260.23 354.05 268.15C353.963 268.623 354.16 268.87 354.64 268.89C364.21 269.23 365.6 277.09 364.11 284.87C363.857 286.203 363.053 286.903 361.7 286.97L361.29 286.99C360.343 287.037 359.883 286.587 359.91 285.64C360.04 280.88 361.82 273.82 354.77 272.87C353.77 272.737 353.087 273.143 352.72 274.09C351.107 278.27 348.94 281.877 346.22 284.91C346.096 285.046 346.029 285.225 346.033 285.409C346.036 285.593 346.111 285.769 346.24 285.9C351.7 291.52 363.03 293.35 370.73 293.47C380.47 293.61 395.11 292.56 401.34 283.65C404.607 278.99 405.333 273.687 403.52 267.74C402.893 265.667 401.66 264.033 399.82 262.84C399.702 262.762 399.568 262.71 399.429 262.687C399.289 262.663 399.145 262.669 399.007 262.704C398.87 262.739 398.74 262.801 398.627 262.889C398.514 262.976 398.419 263.085 398.35 263.21C394.557 270.13 389.143 276.057 382.11 280.99C381.057 281.73 380.1 281.62 379.24 280.66C379.173 280.587 379.11 280.513 379.05 280.44C378.23 279.38 378.38 278.48 379.5 277.74C392.39 269.24 398.5 255.46 400.57 239.99C400.71 238.917 401.317 238.463 402.39 238.63L403.01 238.73C404.337 238.937 404.93 239.71 404.79 241.05C404.21 246.557 402.81 252.087 400.59 257.64C400.53 257.787 400.57 257.897 400.71 257.97C405.723 260.563 408.44 264.783 408.86 270.63C408.887 271.077 409.113 271.23 409.54 271.09C421.007 267.41 428.03 260.23 430.61 249.55C432.47 241.87 431.67 232.64 428.4 225.51C426.533 221.43 423.497 218 419.29 215.22C418.39 214.627 418.063 213.84 418.31 212.86C418.388 212.562 418.563 212.299 418.808 212.113C419.052 211.926 419.352 211.827 419.66 211.83C425.24 211.92 430.57 220.26 432.61 224.9C433.13 226.08 433.463 226.033 433.61 224.76C434.96 213.25 431.07 201.39 418.07 199.8C411.483 199 405.61 199.52 400.45 201.36C394.24 203.57 391.36 209.27 390.8 215.48C390.267 221.253 389.74 226.543 389.22 231.35C388.02 242.27 383.083 251.813 374.41 259.98C373.337 260.987 372.3 260.95 371.3 259.87L371.12 259.68C370.293 258.787 370.347 257.95 371.28 257.17C379.487 250.27 384.15 241.263 385.27 230.15C385.73 225.57 386.147 220.953 386.52 216.3C386.93 211.08 388.48 204.36 392.95 201.07C393.317 200.797 393.337 200.5 393.01 200.18C388.083 195.34 386.39 189.15 387.93 181.61C388.021 181.174 388.258 180.782 388.601 180.498C388.945 180.215 389.375 180.056 389.82 180.05H390.3C391.48 180.03 392.023 180.61 391.93 181.79C391.42 188.28 391.9 193.37 397.02 197.31C397.281 197.509 397.584 197.645 397.905 197.707C398.226 197.77 398.556 197.757 398.87 197.67C402.29 196.72 405.73 195.5 409.31 195.44C411.25 195.4 413.25 195.473 415.31 195.66C415.38 195.666 415.45 195.657 415.516 195.633C415.582 195.609 415.642 195.571 415.691 195.521C415.741 195.472 415.779 195.412 415.803 195.346C415.827 195.28 415.836 195.21 415.83 195.14C414.65 182.34 409.81 165.22 393.55 165.32C385.65 165.37 378.77 169.99 373.97 176.37C373.777 176.63 373.71 176.92 373.77 177.24C375.423 186.093 374.04 193.923 369.62 200.73C369.468 200.961 369.274 201.155 369.05 201.3C367.883 202.087 366.967 202.27 366.3 201.85C365.153 201.123 364.947 200.19 365.68 199.05C370.613 191.357 371.44 183.123 368.16 174.35C365.85 168.17 359.79 163.44 353.19 162.31C345.243 160.963 338.147 162.907 331.9 168.14C331.791 168.232 331.707 168.35 331.656 168.483C331.606 168.616 331.589 168.759 331.609 168.9C331.629 169.041 331.685 169.175 331.771 169.288C331.857 169.402 331.97 169.492 332.1 169.55C334.84 170.797 337.143 172.427 339.01 174.44C340.117 175.64 341.277 176.49 342.49 176.99C344.62 177.88 351.9 179.81 350.31 183.45C350.214 183.672 350.072 183.871 349.894 184.034C349.715 184.197 349.504 184.321 349.275 184.396C349.045 184.472 348.802 184.498 348.562 184.473C348.321 184.447 348.089 184.371 347.88 184.25C340.71 180.06 331.67 177.63 324.97 184.4C320.17 189.24 320.03 197.02 320.99 203.5C321.783 208.833 324.603 213.55 329.45 217.65C329.745 217.901 329.933 218.256 329.974 218.641C330.015 219.026 329.906 219.413 329.67 219.72ZM315.5 196.52C315.55 196.538 315.604 196.545 315.658 196.538C315.711 196.532 315.763 196.513 315.808 196.483C315.854 196.453 315.892 196.413 315.92 196.365C315.948 196.318 315.965 196.265 315.97 196.21C316.9 185.42 322.56 176.99 333.9 175.98C334.473 175.933 334.517 175.757 334.03 175.45C320.01 166.66 306.41 170.88 299.77 185.88C299.437 186.62 299.637 187.167 300.37 187.52C304 189.29 307.73 191.4 310.85 193.94C312.263 195.087 313.813 195.947 315.5 196.52Z" fill="black"/>
<path d="M365.019 228.1C360.229 229.87 356.649 230.25 351.609 228.21C351.243 228.063 350.993 228.17 350.859 228.53C344.559 245.6 326.909 248.16 310.799 244.54C304.193 243.06 298.366 239.93 293.319 235.15C287.246 229.403 283.943 221.797 283.409 212.33C283.229 209.017 283.449 206.08 284.069 203.52C284.309 202.52 284.943 201.97 285.969 201.87C286.709 201.803 287.333 202.417 287.839 203.71C287.957 204.011 287.992 204.339 287.939 204.66C284.019 230.03 305.719 245.34 328.859 241.81C337.173 240.543 342.843 236.35 345.869 229.23C349.919 219.71 345.529 209.21 339.089 202.03C338.503 201.377 338.553 200.773 339.239 200.22L340.049 199.57C340.683 199.057 341.316 199.06 341.949 199.58C348.569 205.03 351.529 214.41 351.869 222.77C351.882 223.129 352.004 223.476 352.22 223.766C352.436 224.055 352.736 224.273 353.079 224.39C356.719 225.63 360.299 225.49 363.819 223.97C364.482 223.681 365.013 223.153 365.309 222.49C367.259 218.14 368.979 214.59 373.469 212.19C374.709 211.53 375.939 211.617 377.159 212.45C377.259 212.523 377.353 212.613 377.439 212.72C378.426 214.08 378.153 215.1 376.619 215.78C373.009 217.4 369.649 220.99 370.319 225.03C370.706 227.35 371.869 229.857 373.809 232.55C373.963 232.762 374.068 233.004 374.12 233.26C374.171 233.516 374.167 233.78 374.107 234.034C374.047 234.288 373.934 234.527 373.773 234.733C373.613 234.939 373.411 235.109 373.179 235.23L372.719 235.47C371.239 236.25 370.099 235.903 369.299 234.43L366.049 228.49C365.816 228.063 365.473 227.933 365.019 228.1Z" fill="black"/>
<path d="M569.43 245.68C569.05 246.713 568.463 247.38 567.67 247.68C566.383 248.167 565.633 247.73 565.42 246.37C564.84 242.697 563.84 238.66 562.42 234.26C561.993 232.927 562.453 232.063 563.8 231.67L564.11 231.58C565.27 231.24 566.006 231.653 566.32 232.82L569.49 244.58C569.587 244.944 569.566 245.329 569.43 245.68Z" fill="black"/>
<path d="M581.486 232.463L581.217 232.289C580.345 231.725 579.181 231.974 578.618 232.846L570.796 244.937C570.232 245.808 570.481 246.972 571.353 247.536L571.622 247.71C572.494 248.274 573.657 248.025 574.221 247.153L582.043 235.062C582.607 234.19 582.358 233.027 581.486 232.463Z" fill="black"/>
<path d="M418.009 240.28C417.973 239.904 417.83 239.546 417.598 239.25C417.366 238.954 417.054 238.732 416.699 238.61L411.109 236.66C410.741 236.532 410.427 236.284 410.216 235.956C410.006 235.627 409.912 235.238 409.949 234.85C410.049 233.86 410.909 233.15 411.879 233.1C414.893 232.947 417.596 233.773 419.989 235.58C425.889 240.04 421.129 246.62 416.729 249.23C415.609 249.897 414.653 249.71 413.859 248.67L413.679 248.43C412.799 247.283 412.959 246.31 414.159 245.51C415.829 244.4 418.229 242.51 418.009 240.28Z" fill="black"/>
<path d="M535.82 931.64C536.133 931.266 536.05 931.13 535.57 931.23C522.403 933.963 509.596 936.753 497.15 939.6C494.496 940.206 492.343 940.403 490.69 940.19C483.24 939.23 480.04 929.87 485.18 924.55C491.44 918.08 501.16 913.4 509.6 910.88C509.748 910.836 509.877 910.747 509.969 910.627C510.061 910.506 510.111 910.359 510.11 910.21L510.17 876.5C510.17 875.886 509.863 875.58 509.25 875.58H115.33C114.496 875.58 114.06 875.163 114.02 874.33L113.98 873.62C113.969 873.426 113.997 873.233 114.063 873.051C114.129 872.87 114.231 872.704 114.363 872.563C114.495 872.423 114.655 872.311 114.831 872.235C115.008 872.158 115.198 872.119 115.39 872.12L509.49 872.14C509.662 872.14 509.828 872.071 509.949 871.949C510.071 871.827 510.14 871.662 510.14 871.49L510.23 809.28C510.231 809.162 510.188 809.048 510.111 808.96C510.034 808.871 509.926 808.814 509.81 808.8C491.71 806.36 474.443 802.71 458.01 797.85C457.786 797.784 457.591 797.645 457.456 797.454C457.322 797.263 457.256 797.033 457.27 796.8C459.71 758.006 464.816 719.973 472.59 682.7C472.611 682.591 472.593 682.479 472.54 682.385C472.486 682.291 472.401 682.221 472.3 682.19L462.78 679.01C462.426 678.896 462.26 678.653 462.28 678.28C463.486 654.153 466.576 630.296 471.55 606.71C471.56 606.658 471.559 606.606 471.547 606.555C471.535 606.504 471.511 606.457 471.479 606.416C471.447 606.375 471.406 606.342 471.359 606.318C471.313 606.295 471.262 606.281 471.21 606.28C468.17 606.18 464.01 606.28 461.2 604.92C460.286 604.486 459.303 604.116 458.25 603.81C450.263 601.53 441.87 598.866 433.07 595.82C429.516 594.586 425.57 592.506 421.23 589.58C414.983 585.366 409.6 581.273 405.08 577.3C397.92 570.993 390.85 564.99 383.87 559.29C380.03 556.16 376.64 552.63 372.88 549.55C367.39 545.05 366.95 540.75 370.39 534.51C370.97 533.45 370.67 532.796 369.49 532.55C359.323 530.43 349.59 528.086 340.29 525.52C333.903 523.76 327.836 521.433 322.09 518.54C314.64 514.8 304.98 507.1 302.08 498.75C299.9 492.48 306.78 491.08 311.11 492.27C311.77 492.45 311.886 492.27 311.46 491.73C308.01 487.33 305.46 479.53 309.3 474.72C309.54 474.42 309.64 474.076 309.6 473.69C309.08 468.77 310.786 464.8 314.72 461.78C315.47 461.2 316.34 460.99 317.28 461C317.9 461.013 318.056 460.75 317.75 460.21C317.036 458.95 316.873 457.583 317.26 456.11C318.726 450.463 322.043 447.323 327.21 446.69C327.53 446.65 327.716 446.473 327.77 446.16C328.423 442.406 330.456 440.066 333.87 439.14C337.743 438.093 340.58 439.1 342.38 442.16C342.566 442.473 342.783 442.496 343.03 442.23C347.196 437.73 351.666 437.5 356.44 441.54C358.313 443.126 359.21 445.053 359.13 447.32C359.116 447.68 359.293 447.863 359.66 447.87C365.23 447.93 370.52 454.75 368.77 460.36C368.67 460.693 368.773 460.933 369.08 461.08C372.14 462.533 374.07 464.566 374.87 467.18C377.57 475.97 378.04 485.43 372.61 493.4C372.532 493.514 372.495 493.65 372.504 493.788C372.513 493.926 372.568 494.056 372.66 494.16L381.44 503.92C381.552 504.044 381.689 504.144 381.841 504.214C381.993 504.284 382.159 504.322 382.326 504.326C382.494 504.33 382.66 504.299 382.816 504.236C382.971 504.173 383.112 504.079 383.23 503.96C388.13 498.98 392.81 504.99 396.77 507.49C405.243 512.836 413.53 518.593 421.63 524.76C431.95 532.61 443.67 538.89 454.57 545.48C454.87 545.66 455.143 545.626 455.39 545.38C460.39 540.406 464.76 534.963 468.5 529.05C476.573 516.276 484.403 503.886 491.99 491.88C494.456 487.98 497.176 483.943 500.15 479.77C500.18 479.726 500.198 479.676 500.202 479.624C500.207 479.571 500.197 479.519 500.175 479.471C500.153 479.424 500.118 479.383 500.075 479.353C500.032 479.322 499.982 479.304 499.93 479.3C487.97 478.286 477.003 475.806 467.03 471.86C457.463 468.073 450.73 461.073 446.83 450.86C440.21 433.49 443.2 414.37 449.2 396.74C453.8 383.246 459.736 370.026 467.01 357.08C467.656 355.926 468.59 355.096 469.81 354.59C470.017 354.502 470.24 354.462 470.465 354.472C470.689 354.482 470.908 354.541 471.107 354.647C471.305 354.752 471.477 354.901 471.611 355.081C471.745 355.261 471.837 355.469 471.88 355.69C474.75 370.17 479.2 383.69 487.33 395.67C502.3 417.76 525.31 424.59 550.59 420.16C550.671 420.145 550.754 420.148 550.834 420.169C550.914 420.19 550.988 420.228 551.052 420.28C551.115 420.332 551.167 420.398 551.203 420.472C551.239 420.546 551.258 420.627 551.26 420.71C551.36 426.583 551.43 432.466 551.47 438.36C551.52 445.88 556.21 457.09 565.4 455.85C572.54 454.9 575.95 449.94 578.44 443.72C578.96 442.426 579.223 440.903 579.23 439.15C579.243 429.603 579.24 419.966 579.22 410.24C579.22 410.006 579.279 409.776 579.39 409.57C579.502 409.364 579.663 409.189 579.86 409.06C589.4 402.773 596.843 394.663 602.19 384.73C602.616 383.943 603.24 383.366 604.06 383C613.4 378.81 620.33 367.81 616.66 357.41C613.69 348.97 604.77 347.23 597.36 350.79C597.157 350.887 596.929 350.92 596.705 350.884C596.482 350.849 596.274 350.746 596.11 350.59C590.3 345.03 584.67 338.86 577.95 334.56C577.436 334.233 576.87 334.046 576.25 334C561.056 332.906 545.733 333.156 530.28 334.75C530.018 334.776 529.754 334.722 529.522 334.596C529.29 334.469 529.101 334.275 528.98 334.04C520.99 318.61 519.68 299.99 526.69 284.02C526.923 283.48 526.76 283.126 526.2 282.96L525.91 282.88C525.43 282.74 525.133 282.916 525.02 283.41C520.96 301.25 509.97 315.04 494.9 324.87C494.562 325.089 494.167 325.204 493.765 325.2C493.363 325.197 492.972 325.075 492.64 324.85C486.433 320.643 480.21 317.356 473.97 314.99C473.908 314.966 473.841 314.955 473.774 314.957C473.708 314.959 473.642 314.975 473.582 315.003C473.521 315.031 473.467 315.07 473.422 315.12C473.377 315.169 473.342 315.227 473.32 315.29C472.113 318.656 471.483 322.27 471.43 326.13C471.336 333.276 471.483 340.286 471.87 347.16C471.93 348.18 471.446 348.686 470.42 348.68L469.56 348.67C468.68 348.67 468.216 348.23 468.17 347.35C467.85 341.003 467.693 334.133 467.7 326.74C467.706 321.873 468.47 317.613 469.99 313.96C470.03 313.864 470.05 313.762 470.047 313.658C470.044 313.555 470.019 313.453 469.974 313.36C469.929 313.266 469.864 313.183 469.784 313.116C469.704 313.048 469.61 312.999 469.51 312.97L461.3 310.61C460.913 310.503 460.71 310.25 460.69 309.85C459.31 283.28 478.29 256.45 502.27 245.53C521.143 236.93 540.05 237.486 558.99 247.2C561.82 248.65 564.39 250.42 567.12 252.08C567.86 252.533 568.64 252.576 569.46 252.21C586.613 244.563 602.92 244.89 618.38 253.19C632.96 261.03 642.23 275.14 647.63 291.32C651.03 301.48 652.93 312.64 656.06 322.86C660.9 338.7 668.246 353.533 678.1 367.36C683.306 374.66 688.303 381.766 693.09 388.68C704.87 405.69 713.75 426.66 703.69 446.9C700.423 453.48 695.483 459.496 688.87 464.95C670.39 480.21 645.41 486.11 621.14 486C621.056 485.998 620.973 486.018 620.898 486.057C620.824 486.095 620.76 486.152 620.712 486.221C620.665 486.29 620.635 486.37 620.626 486.454C620.617 486.537 620.628 486.622 620.66 486.7C624.193 495.573 627.12 504.17 629.44 512.49C634.986 532.37 639.64 554.133 643.4 577.78C648.313 608.68 651.74 639.793 653.68 671.12C653.694 671.338 653.627 671.554 653.493 671.729C653.359 671.903 653.166 672.024 652.95 672.07L650.78 672.51C650.391 672.585 650.044 672.804 649.809 673.125C649.574 673.445 649.467 673.843 649.51 674.24C653.843 715.926 657.92 756.6 661.74 796.26C661.906 798.013 662.036 799.813 662.13 801.66C662.15 801.96 662.013 802.146 661.72 802.22C641.733 807.26 621.83 810.453 602.01 811.8C601.603 811.833 601.4 812.053 601.4 812.46L601.61 871.92C601.61 871.975 601.632 872.029 601.671 872.068C601.711 872.107 601.764 872.13 601.82 872.13H900.15C900.903 872.13 901.413 872.48 901.68 873.18C901.98 873.953 901.796 874.63 901.13 875.21C900.885 875.429 900.568 875.55 900.24 875.55L602.05 875.6C601.912 875.6 601.78 875.654 601.682 875.752C601.585 875.849 601.53 875.982 601.53 876.12C601.483 891.693 601.546 907.633 601.72 923.94C601.82 933.34 599.09 938.91 589.62 940.38C573.893 942.826 558.86 945.216 544.52 947.55C535.54 949.01 529.06 940.26 534.89 932.78C535.196 932.386 535.506 932.006 535.82 931.64ZM355.92 450.8C356.05 446.23 353.56 442.19 348.43 443.18C348.018 443.257 347.654 443.486 347.41 443.82C345.07 446.94 344.006 450.5 344.22 454.5C345.046 470.166 344.936 484.713 343.89 498.14C343.856 498.506 344.026 498.673 344.4 498.64L352 497.91C352.188 497.89 352.366 497.815 352.513 497.695C352.659 497.575 352.767 497.414 352.823 497.234C352.88 497.053 352.882 496.86 352.83 496.678C352.778 496.496 352.673 496.333 352.53 496.21C351.34 495.19 349.89 494.81 348.77 493.67C346.21 491.043 345.39 488.056 346.31 484.71C347.28 481.2 350.66 478.67 354.19 481.06C359.503 484.653 364.393 488.1 368.86 491.4C369.226 491.666 369.493 491.593 369.66 491.18C371.51 486.64 374.18 481.76 372.07 477.04C371.3 475.31 371.9 474.4 372.13 472.74C372.88 467.44 368.19 466.13 364.35 464.66C364.068 464.552 363.837 464.34 363.703 464.068C363.57 463.795 363.543 463.482 363.63 463.19C364.21 461.22 365.28 459.23 364.69 457.15C363.683 453.623 361.193 451.933 357.22 452.08C357.048 452.086 356.877 452.058 356.716 451.996C356.556 451.935 356.411 451.841 356.289 451.721C356.167 451.601 356.071 451.457 356.007 451.298C355.944 451.14 355.914 450.97 355.92 450.8ZM336.5 459.03C336.149 459.042 335.801 458.977 335.479 458.838C335.157 458.7 334.871 458.492 334.64 458.23C333.18 456.583 331.586 456.253 329.86 457.24C326.78 459 328.35 462.89 331.33 463.59C332.81 463.93 334.85 464.63 335.04 466.39C335.093 466.863 334.886 467.133 334.42 467.2C331.32 467.68 328.33 468.13 326.66 471.15C325.586 473.09 324.686 475.233 323.96 477.58C323.806 478.08 323.983 478.273 324.49 478.16C324.583 478.14 324.676 478.13 324.77 478.13C326.97 478.1 327.34 480.67 326.27 482.08C323.456 485.786 322.21 489.58 322.53 493.46C322.623 494.613 323.136 495.41 324.07 495.85C328.39 497.89 334.04 498.06 339 498.39C339.051 498.392 339.102 498.385 339.151 498.369C339.199 498.352 339.244 498.326 339.282 498.293C339.32 498.259 339.351 498.219 339.373 498.174C339.395 498.129 339.407 498.08 339.41 498.03C339.63 494.65 340.18 491.34 340.27 487.97C340.636 473.31 340.856 460.43 340.93 449.33C340.95 446.07 338.07 442.02 334.33 443.39C333.243 443.79 332.516 444.553 332.15 445.68C331.463 447.78 330.71 449.883 329.89 451.99C329.839 452.117 329.823 452.255 329.844 452.39C329.864 452.526 329.92 452.653 330.006 452.761C330.092 452.868 330.205 452.951 330.334 453.002C330.463 453.053 330.603 453.069 330.74 453.05C334.693 452.49 337.22 453.94 338.32 457.4C338.653 458.433 338.046 458.976 336.5 459.03ZM549.17 509.64C550.19 510.366 550.43 511.296 549.89 512.43C537.61 538.04 513.32 560.07 484.14 562.59C481.54 562.81 479.27 562.523 477.33 561.73C471.57 559.356 465.966 556.53 460.52 553.25C448.7 546.13 436.933 539.056 425.22 532.03C425.114 531.968 424.995 531.931 424.873 531.922C424.751 531.913 424.628 531.932 424.515 531.978C424.402 532.023 424.301 532.094 424.221 532.184C424.14 532.275 424.082 532.383 424.05 532.5C420.61 544.893 416.24 556.036 410.94 565.93C410.44 566.856 409.853 567.74 409.18 568.58C408.806 569.06 408.833 569.513 409.26 569.94C428.24 589.2 452.2 604.15 480.29 602.96C514.67 601.5 550.14 586.88 573.35 561.31C576.3 558.07 578.83 554.63 581.28 551.15C581.807 550.403 582.5 550.18 583.36 550.48C583.633 550.573 583.863 550.723 584.05 550.93C584.876 551.843 584.933 552.8 584.22 553.8C576.92 564.113 568.133 572.886 557.86 580.12C533.3 597.42 505.843 606.273 475.49 606.68C475.156 606.68 474.96 606.843 474.9 607.17C470.49 629.99 466.97 652.75 465.98 675.84C465.966 676.28 466.17 676.563 466.59 676.69C473.47 678.78 480.26 681.45 487.26 683.21C521.76 691.9 558.39 691.63 594.12 685.52C615.086 681.933 633.59 676.596 649.63 669.51C649.93 669.383 650.07 669.153 650.05 668.82C648.25 638.5 644.17 606.76 639.37 575.9C635.29 549.65 629.43 521.9 620.09 495.12C614.15 478.08 603.26 452.9 583.72 448.28C583.489 448.225 583.247 448.248 583.029 448.343C582.811 448.439 582.629 448.602 582.51 448.81C579.643 453.823 575.383 457.16 569.73 458.82C559.33 461.87 552.15 456.22 548.45 446.7C548.29 446.286 547.99 446.12 547.55 446.2C521.98 450.85 505.96 477.16 492.77 497.75C484.616 510.476 477.093 522.293 470.2 533.2C467.113 538.08 463.363 542.676 458.95 546.99C458.583 547.35 458.616 547.67 459.05 547.95C465.856 552.29 472.566 555.896 479.18 558.77C479.267 558.807 479.362 558.826 479.457 558.823C479.552 558.821 479.645 558.798 479.731 558.756C479.816 558.715 479.892 558.655 479.952 558.581C480.012 558.508 480.056 558.422 480.08 558.33C484.94 539.98 490.02 521.83 496.64 504.17C496.726 503.944 496.858 503.739 497.029 503.567C497.199 503.396 497.404 503.263 497.629 503.176C497.855 503.089 498.096 503.051 498.337 503.064C498.579 503.076 498.815 503.14 499.03 503.25L499.45 503.47C500.25 503.883 500.493 504.513 500.18 505.36C493.69 522.68 488.72 540.52 484.01 558.54C483.896 558.966 484.06 559.16 484.5 559.12C497.28 557.91 510.06 551.75 520.15 543.77C531.277 534.97 540.196 523.796 546.91 510.25C547.073 509.923 547.345 509.663 547.679 509.515C548.013 509.367 548.388 509.341 548.74 509.44C548.9 509.48 549.043 509.546 549.17 509.64ZM319.88 475.71C320.266 471.136 322.153 467.526 325.54 464.88C325.833 464.653 325.886 464.38 325.7 464.06C323.113 459.7 324.216 455.903 329.01 452.67C329.123 452.593 329.215 452.489 329.278 452.368C329.341 452.247 329.372 452.112 329.369 451.977C329.366 451.841 329.329 451.709 329.261 451.592C329.193 451.475 329.096 451.378 328.98 451.31C328.3 450.903 327.583 450.816 326.83 451.05C323.903 451.956 322.216 453.806 321.77 456.6C321.49 458.37 321.05 461.07 323.07 461.99C323.496 462.19 323.756 462.516 323.85 462.97C323.963 463.51 323.93 464.02 323.75 464.5C323.623 464.846 323.376 465.03 323.01 465.05C321.503 465.116 319.92 465.243 318.26 465.43C314.11 465.91 313.52 469.81 313.37 473.15C313.29 474.93 315.37 474.83 316.13 475.82C316.783 476.666 317.07 477.696 316.99 478.91C316.976 479.124 316.912 479.332 316.804 479.518C316.696 479.704 316.546 479.862 316.366 479.981C316.187 480.1 315.982 480.176 315.767 480.204C315.553 480.231 315.335 480.209 315.13 480.14C313.78 479.67 313.81 477.77 311.65 478.3C311.223 478.406 311 478.68 310.98 479.12C310.73 484.27 314.11 489.71 317.25 493.55C317.916 494.376 318.266 494.26 318.3 493.2C318.473 487.82 320.12 482.913 323.24 478.48C323.493 478.113 323.403 477.89 322.97 477.81C322.043 477.636 321.196 477.306 320.43 476.82C320.246 476.702 320.097 476.537 320.001 476.341C319.904 476.145 319.862 475.927 319.88 475.71ZM384.49 511.59C382.923 510.543 381.483 509.31 380.17 507.89C374.05 501.28 367.56 494.61 360.19 489.99C357.336 488.196 354.676 486.23 352.21 484.09C351.416 483.403 350.726 483.496 350.14 484.37C349.993 484.596 349.903 484.85 349.87 485.13C349.683 486.596 350.05 487.876 350.97 488.97C352.496 490.776 354.203 492.556 356.09 494.31C358.81 496.84 356.67 500.01 353.84 500.79C351.093 501.55 347.9 501.94 344.26 501.96C333.27 502.02 323.05 499.94 312.7 496.54C310.67 495.88 308.52 495.75 306.42 495.42C306.292 495.399 306.162 495.409 306.039 495.45C305.917 495.491 305.806 495.562 305.718 495.656C305.629 495.749 305.564 495.864 305.53 495.988C305.495 496.112 305.492 496.243 305.52 496.37C305.84 497.883 306.463 499.313 307.39 500.66C312.623 508.253 319.83 513.946 329.01 517.74C338.903 521.826 351.25 525.253 366.05 528.02C370.776 528.9 374.713 530.636 377.86 533.23C377.919 533.279 377.989 533.315 378.064 533.332C378.14 533.35 378.218 533.349 378.293 533.331C378.368 533.312 378.438 533.276 378.497 533.226C378.555 533.175 378.601 533.111 378.63 533.04C381.35 526.25 384.52 519.02 386.21 511.79C386.29 511.43 386.163 511.326 385.83 511.48L385.45 511.66C385.116 511.813 384.796 511.79 384.49 511.59ZM386.24 508.24C386.33 509.1 386.12 509.87 386.11 510.7C386.11 511.246 386.243 511.28 386.51 510.8C387.236 509.5 387.716 508.333 387.95 507.3C388.123 506.526 387.846 506.293 387.12 506.6C386.453 506.886 386.16 507.433 386.24 508.24ZM388.41 544.46C387.303 547.84 385.276 550.606 382.33 552.76C382.297 552.782 382.27 552.813 382.251 552.848C382.233 552.883 382.222 552.923 382.221 552.963C382.22 553.004 382.229 553.044 382.246 553.082C382.263 553.119 382.288 553.153 382.32 553.18L402.75 570.05C403.156 570.39 403.506 570.336 403.8 569.89C409.306 561.436 413.606 552.556 416.7 543.25C418.16 538.85 419.77 534.63 420.95 530.41C421.23 529.41 420.933 528.586 420.06 527.94C409.46 520.093 399.99 513.79 391.65 509.03C391.17 508.763 390.966 508.9 391.04 509.44C391.14 510.21 390.87 511.25 390.64 512C386.82 524.21 382.83 534.42 375.57 545.22C375.056 545.986 375.163 546.656 375.89 547.23L379.2 549.83C380.12 550.55 380.856 550.396 381.41 549.37L384.47 543.67C384.75 543.156 385.183 542.923 385.77 542.97L387.52 543.11C388.386 543.183 388.683 543.633 388.41 544.46ZM373.49 536.2C372.75 537.84 372.236 539.456 371.95 541.05C371.696 542.45 372.036 542.61 372.97 541.53C373.99 540.35 374.87 538.996 375.61 537.47C375.956 536.756 375.763 536.243 375.03 535.93L374.62 535.76C374.1 535.54 373.723 535.686 373.49 536.2ZM543.49 812.75C543.49 812.634 543.447 812.523 543.37 812.438C543.292 812.352 543.185 812.3 543.07 812.29L513.92 809.64C513.857 809.634 513.794 809.642 513.734 809.662C513.674 809.682 513.619 809.714 513.572 809.756C513.525 809.798 513.487 809.85 513.461 809.907C513.435 809.964 513.421 810.027 513.42 810.09L513.37 904.3C513.37 904.422 513.418 904.539 513.505 904.625C513.591 904.711 513.708 904.76 513.83 904.76L543.1 904.63C543.222 904.63 543.339 904.581 543.425 904.495C543.511 904.409 543.56 904.292 543.56 904.17L543.49 812.75ZM598.12 812.63C598.119 812.563 598.104 812.496 598.077 812.435C598.05 812.374 598.012 812.318 597.963 812.272C597.915 812.225 597.858 812.189 597.796 812.165C597.733 812.14 597.667 812.128 597.6 812.13L565.13 813.07C564.996 813.072 564.869 813.127 564.776 813.222C564.682 813.318 564.63 813.446 564.63 813.58L564.75 912.15C564.75 912.285 564.804 912.415 564.899 912.51C564.995 912.606 565.125 912.66 565.26 912.66L597.8 912.67C597.935 912.67 598.065 912.616 598.16 912.52C598.256 912.425 598.31 912.295 598.31 912.16L598.12 812.63ZM561.237 813.144C561.237 813.087 561.226 813.029 561.203 812.976C561.181 812.923 561.149 812.874 561.108 812.834C561.067 812.793 561.018 812.761 560.964 812.739C560.911 812.717 560.854 812.706 560.796 812.706L547.116 812.754C546.999 812.754 546.888 812.801 546.805 812.884C546.723 812.966 546.677 813.079 546.678 813.195L546.882 871.795C546.882 871.853 546.894 871.91 546.916 871.963C546.938 872.016 546.971 872.065 547.012 872.105C547.053 872.146 547.102 872.178 547.155 872.2C547.209 872.222 547.266 872.233 547.324 872.233L561.004 872.185C561.12 872.185 561.232 872.138 561.314 872.055C561.396 871.973 561.442 871.861 561.442 871.744L561.237 813.144ZM561.03 919.49C561.29 919.436 561.42 919.28 561.42 919.02L561.33 876.26C561.33 875.88 561.14 875.69 560.76 875.69L547.3 875.67C547.212 875.67 547.126 875.687 547.045 875.721C546.964 875.756 546.891 875.806 546.83 875.869C546.768 875.933 546.72 876.008 546.687 876.09C546.655 876.173 546.639 876.261 546.64 876.35C546.846 889.876 546.92 903.51 546.86 917.25C546.846 919.596 546.79 921.913 546.69 924.2C546.67 924.626 546.85 924.74 547.23 924.54C551.696 922.113 556.297 920.43 561.03 919.49Z" fill="black"/>
<path d="M286.3 250.45C286.301 250.007 286.171 249.572 285.928 249.2C285.685 248.827 285.338 248.532 284.93 248.35C283.28 247.62 277.65 246.34 280.01 243.2C280.537 242.5 281.247 242.27 282.14 242.51C286.06 243.56 291.01 246.09 290.94 250.67C290.873 254.443 289.1 257.42 285.62 259.6C284.46 260.32 283.42 260.177 282.5 259.17C282.293 258.937 282.14 258.673 282.04 258.38C281.74 257.5 281.98 256.807 282.76 256.3C285.12 254.767 286.3 252.817 286.3 250.45Z" fill="black"/>
<path d="M325.79 266.71C323.85 257.93 318.6 256.15 310.36 256.27C309.307 256.283 308.77 255.763 308.75 254.71L308.73 253.83C308.721 253.427 308.865 253.035 309.134 252.733C309.402 252.43 309.776 252.24 310.18 252.2C320.09 251.14 328.67 255.58 330.2 265.74C330.67 268.86 326.48 269.83 325.79 266.71Z" fill="black"/>
<path d="M344.669 321.459L344.249 321.46C343.359 321.462 342.64 322.184 342.641 323.073L342.758 389.593C342.759 390.482 343.481 391.202 344.37 391.2L344.79 391.199C345.68 391.198 346.399 390.476 346.398 389.586L346.281 323.067C346.28 322.177 345.558 321.458 344.669 321.459Z" fill="black"/>
<path d="M375.134 322.968L374.663 322.879C373.745 322.706 372.861 323.309 372.688 324.226L367.898 349.577C367.725 350.495 368.328 351.379 369.245 351.552L369.716 351.641C370.634 351.814 371.518 351.211 371.691 350.294L376.481 324.943C376.654 324.026 376.051 323.142 375.134 322.968Z" fill="black"/>
<path d="M316.571 325.369L316.063 325.483C315.125 325.692 314.535 326.623 314.745 327.56L320.251 352.193C320.46 353.13 321.391 353.721 322.328 353.511L322.836 353.398C323.774 353.188 324.364 352.258 324.154 351.32L318.648 326.688C318.439 325.75 317.509 325.16 316.571 325.369Z" fill="black"/>
<path d="M478.93 334.1C478.718 334.186 478.495 334.234 478.27 334.24C475.636 334.307 475.13 333.227 476.75 331C476.94 330.738 477.191 330.528 477.48 330.39C483.29 327.57 491.76 327.63 496.92 332.31C497.121 332.493 497.28 332.716 497.387 332.966C497.494 333.215 497.546 333.485 497.539 333.756C497.533 334.028 497.468 334.294 497.349 334.538C497.23 334.782 497.059 334.998 496.85 335.17C496.256 335.65 495.6 335.704 494.88 335.33C489.4 332.52 485.26 331.42 478.93 334.1Z" fill="black"/>
<path d="M542.1 342.17C540.7 342.69 538.72 343.71 537.77 341.79C537.29 340.836 537.47 340.036 538.31 339.39C538.89 338.943 539.54 338.606 540.26 338.38C547.3 336.153 553.996 336.696 560.35 340.01C560.7 340.191 560.981 340.479 561.15 340.83C561.57 341.703 561.613 342.393 561.28 342.9C560.54 344.033 559.576 344.276 558.39 343.63C552.943 340.663 547.513 340.176 542.1 342.17Z" fill="black"/>
<path d="M487.307 342.351L486.987 342.349C485.38 342.341 484.07 343.637 484.062 345.244L484.018 353.724C484.009 355.331 485.305 356.641 486.912 356.649L487.232 356.651C488.839 356.659 490.149 355.363 490.157 353.756L490.202 345.276C490.21 343.669 488.914 342.359 487.307 342.351Z" fill="black"/>
<path d="M506.86 365.35C508.39 366.27 512.52 368.31 511.68 370.54C511.525 370.948 511.216 371.278 510.818 371.458C510.421 371.638 509.969 371.653 509.56 371.5C507.674 370.794 505.76 369.74 503.82 368.34C501.527 366.687 501.017 364.624 502.29 362.15C505.297 356.29 508.244 350.697 511.13 345.37C511.784 344.157 512.784 343.7 514.13 344C514.704 344.127 515.107 344.59 515.34 345.39C515.391 345.556 515.408 345.73 515.391 345.903C515.374 346.076 515.323 346.245 515.24 346.4L506.37 363.6C506.216 363.902 506.181 364.25 506.272 364.574C506.363 364.899 506.573 365.176 506.86 365.35Z" fill="black"/>
<path d="M548.514 350.251L548.194 350.25C546.537 350.244 545.19 351.582 545.184 353.239L545.155 361.419C545.15 363.076 546.488 364.424 548.145 364.43L548.465 364.431C550.122 364.437 551.469 363.098 551.475 361.441L551.504 353.261C551.51 351.604 550.171 350.257 548.514 350.251Z" fill="black"/>
<path d="M527.64 386.33C527.775 386.276 527.918 386.25 528.063 386.252C528.208 386.254 528.351 386.285 528.484 386.343C528.617 386.4 528.737 386.484 528.837 386.588C528.938 386.692 529.017 386.815 529.07 386.95L529.25 387.42C529.564 388.213 529.433 389.146 528.886 390.012C528.338 390.878 527.419 391.608 526.33 392.04L522.16 393.69C521.07 394.12 519.901 394.217 518.909 393.96C517.917 393.704 517.184 393.113 516.87 392.32L516.69 391.85C516.585 391.58 516.589 391.28 516.704 391.015C516.818 390.749 517.032 390.539 517.3 390.43L527.64 386.33Z" fill="black"/>
<path d="M361.929 475.17C361.721 475.306 361.553 475.495 361.443 475.718C361.332 475.94 361.283 476.188 361.3 476.435C361.317 476.683 361.401 476.92 361.541 477.123C361.682 477.326 361.875 477.488 362.1 477.59L366.519 479.63C367.986 480.303 368.176 481.24 367.089 482.44C366.476 483.12 365.623 483.513 364.529 483.62C363.189 483.747 362.003 483.38 360.969 482.52C359.989 481.7 359.103 480.583 358.309 479.17C358.143 478.87 358.116 478.557 358.23 478.23C360.59 471.52 357.819 468.9 351.379 468.16C349.633 467.96 349.466 467.337 350.879 466.29C353.309 464.49 357.339 463.18 355.769 459.22C354.819 456.85 351.3 457.11 349.39 457.84C348.223 458.287 347.716 457.89 347.869 456.65L348.029 455.34C348.183 454.127 348.856 453.387 350.049 453.12C356.769 451.63 363.15 457.6 359.76 464.29C359.588 464.625 359.552 465.013 359.658 465.374C359.764 465.735 360.004 466.041 360.329 466.23L364.079 468.42C364.408 468.613 364.657 468.919 364.779 469.28C365.909 472.71 364.429 473.55 361.929 475.17Z" fill="black"/>
<path d="M335.31 476.03C334.67 477.536 333.327 478.086 331.28 477.68C328.31 477.09 328.3 473.17 329.83 471.46C330.13 471.133 330.497 470.936 330.93 470.87C333.283 470.51 335.59 470.51 337.85 470.87C338.197 470.923 338.45 471.11 338.61 471.43C339.59 473.41 339.52 476.31 336.56 476.42C336.333 476.426 336.127 476.363 335.94 476.23C335.867 476.176 335.81 476.106 335.77 476.02C335.61 475.693 335.457 475.696 335.31 476.03ZM334.47 474.74L333.67 473.8C333.29 473.353 333.137 473.42 333.21 474L333.33 474.98C333.377 475.36 333.583 475.503 333.95 475.41L334.27 475.34C334.663 475.246 334.73 475.046 334.47 474.74Z" fill="black"/>
<path d="M354.42 476.7C352.613 477.167 350.506 477.18 348.1 476.74C347.854 476.696 347.628 476.577 347.453 476.4C347.278 476.223 347.161 475.996 347.12 475.75C346.03 469.06 353.49 468.93 355.7 474.08C356.293 475.453 355.867 476.327 354.42 476.7Z" fill="black"/>
<path d="M337.552 482.962C338.489 484.035 338.878 485.508 338.636 487.056C338.394 488.604 337.539 490.1 336.26 491.216C334.981 492.332 333.382 492.976 331.816 493.006C330.249 493.036 328.843 492.45 327.907 491.377C326.971 490.303 326.581 488.831 326.823 487.283C327.066 485.735 327.92 484.239 329.2 483.123C330.479 482.007 332.077 481.363 333.644 481.333C335.21 481.303 336.616 481.889 337.552 482.962ZM331.686 489.577C332.144 489.759 332.684 489.681 333.187 489.361C333.69 489.04 334.115 488.503 334.368 487.867C334.493 487.552 334.572 487.223 334.601 486.897C334.63 486.572 334.608 486.257 334.536 485.971C334.464 485.684 334.344 485.432 334.182 485.228C334.021 485.024 333.82 484.873 333.594 484.782C333.135 484.6 332.595 484.678 332.092 484.998C331.589 485.319 331.164 485.856 330.911 486.492C330.786 486.807 330.707 487.136 330.678 487.461C330.649 487.787 330.671 488.102 330.743 488.388C330.815 488.675 330.935 488.927 331.097 489.131C331.259 489.335 331.459 489.486 331.686 489.577Z" fill="black"/>
<path d="M398.39 515.779C398.494 515.811 398.589 515.863 398.673 515.932C398.756 516.002 398.824 516.086 398.874 516.182C398.925 516.278 398.955 516.383 398.965 516.49C398.975 516.598 398.963 516.706 398.93 516.809L396.74 523.849C396.642 524.167 396.513 524.471 396.363 524.745C396.212 525.02 396.042 525.259 395.863 525.448C395.684 525.638 395.498 525.774 395.318 525.85C395.137 525.926 394.965 525.939 394.81 525.889L393.42 525.459C393.265 525.412 393.132 525.303 393.026 525.139C392.921 524.974 392.846 524.757 392.806 524.5C392.766 524.242 392.762 523.95 392.793 523.639C392.825 523.329 392.892 523.006 392.99 522.689L395.19 515.639C395.222 515.536 395.274 515.44 395.343 515.357C395.412 515.274 395.497 515.205 395.593 515.155C395.689 515.105 395.793 515.074 395.901 515.065C396.009 515.055 396.117 515.067 396.22 515.099L398.39 515.779Z" fill="black"/>
<path d="M392.941 530.09L392.641 529.979C391.698 529.63 390.651 530.112 390.302 531.055L387.943 537.432C387.594 538.375 388.076 539.422 389.019 539.771L389.319 539.882C390.261 540.23 391.308 539.749 391.657 538.806L394.016 532.428C394.365 531.486 393.883 530.439 392.941 530.09Z" fill="black"/>
<path d="M628.16 558.103L628.12 558.104C627.794 558.118 627.541 558.393 627.555 558.718L627.866 566.132C627.879 566.457 628.154 566.71 628.48 566.697L628.52 566.695C628.845 566.681 629.098 566.406 629.085 566.081L628.774 558.667C628.76 558.342 628.485 558.089 628.16 558.103Z" fill="black"/>
<path d="M624.83 565.219L624.66 573.789C624.653 574.136 624.483 574.276 624.15 574.209C624.057 574.196 623.973 574.163 623.9 574.109C623.787 574.036 623.717 573.939 623.69 573.819C623.003 570.933 622.93 568.136 623.47 565.429C623.503 565.26 623.596 565.108 623.732 565.002C623.868 564.896 624.038 564.841 624.21 564.849L624.49 564.859C624.536 564.861 624.581 564.871 624.623 564.89C624.665 564.909 624.703 564.936 624.734 564.969C624.766 565.002 624.791 565.042 624.807 565.085C624.823 565.128 624.831 565.173 624.83 565.219Z" fill="black"/>
<path d="M629.234 576.817L629.175 576.83C628.901 576.892 628.728 577.164 628.789 577.439L630.076 583.197C630.137 583.472 630.41 583.645 630.685 583.583L630.744 583.57C631.018 583.509 631.191 583.236 631.13 582.961L629.843 577.204C629.782 576.929 629.509 576.756 629.234 576.817Z" fill="black"/>
<path d="M623.5 579.93C623.499 579.893 623.505 579.857 623.518 579.822C623.53 579.788 623.55 579.756 623.575 579.729C623.6 579.702 623.63 579.681 623.664 579.665C623.697 579.65 623.733 579.641 623.77 579.64L623.93 579.63C624.175 579.621 624.419 579.666 624.648 579.763C624.878 579.86 625.089 580.006 625.269 580.195C625.45 580.384 625.595 580.61 625.698 580.861C625.802 581.113 625.86 581.384 625.87 581.66L626.01 585.25C626.021 585.526 625.983 585.801 625.899 586.059C625.816 586.318 625.687 586.554 625.522 586.756C625.357 586.957 625.158 587.12 624.936 587.234C624.714 587.348 624.474 587.411 624.23 587.42L624.07 587.43C624.033 587.431 623.997 587.426 623.962 587.413C623.928 587.4 623.896 587.38 623.869 587.355C623.842 587.33 623.821 587.3 623.805 587.267C623.79 587.233 623.782 587.197 623.78 587.16L623.5 579.93Z" fill="black"/>
<path d="M623.634 593.811L622.894 593.809C622.734 593.808 622.604 593.937 622.603 594.098L622.556 607.758C622.555 607.918 622.685 608.048 622.845 608.049L623.585 608.051C623.745 608.052 623.875 607.922 623.876 607.762L623.923 594.102C623.924 593.942 623.795 593.812 623.634 593.811Z" fill="black"/>
<path d="M629.1 594.95L628.74 594.78C628.213 594.527 628.233 594.333 628.8 594.2C629.28 594.087 629.77 594.043 630.27 594.07C630.657 594.09 630.92 594.28 631.06 594.64C631.353 595.393 631.34 596.113 631.02 596.8C630.8 597.273 630.503 597.327 630.13 596.96C629.85 596.687 629.713 596.347 629.72 595.94C629.727 595.473 629.52 595.143 629.1 594.95Z" fill="black"/>
<path d="M625.28 600.65C625.2 600.497 625.163 600.367 625.17 600.26C625.223 598.4 625.233 596.577 625.2 594.79C625.193 594.624 625.256 594.5 625.39 594.42C625.423 594.4 625.456 594.397 625.49 594.41C625.596 594.444 625.663 594.514 625.69 594.62C626.676 598.287 627.096 602.164 626.95 606.25C626.92 607.25 627.3 607.89 627.79 608.7C628.003 609.047 628.05 609.417 627.93 609.81C627.396 611.61 627.606 613.36 628.56 615.06C628.641 615.208 628.686 615.373 628.69 615.541C628.695 615.709 628.658 615.876 628.584 616.026C628.511 616.177 628.402 616.307 628.267 616.405C628.132 616.503 627.975 616.567 627.81 616.59C627.363 616.65 627.05 616.457 626.87 616.01C626.736 615.677 626.72 615.34 626.82 615C627.326 613.26 627.14 611.58 626.26 609.96C626.08 609.627 626.043 609.28 626.15 608.92L626.43 608C626.523 607.68 626.543 607.354 626.49 607.02L625.54 601.43C625.493 601.157 625.406 600.897 625.28 600.65Z" fill="black"/>
<path d="M628.58 602.53C628.6 601.97 628.31 601.637 627.71 601.53C627.574 601.511 627.447 601.444 627.35 601.34C627.03 601.014 626.963 600.78 627.15 600.64C627.203 600.607 627.26 600.594 627.32 600.6C628.627 600.674 629.433 601.354 629.74 602.64C629.753 602.68 629.743 602.71 629.71 602.73L629.31 602.96C628.803 603.267 628.56 603.124 628.58 602.53Z" fill="black"/>
<path d="M634.6 621.97C635.353 623.997 635.673 625.947 635.56 627.82C635.48 629.18 635.85 630.28 636.17 631.55C636.208 631.698 636.215 631.853 636.191 632.005C636.167 632.156 636.112 632.301 636.03 632.43C635.77 632.837 635.833 633.18 636.22 633.46C636.526 633.68 636.693 633.977 636.72 634.35C636.76 635.017 636.703 635.673 636.55 636.32C636.323 637.3 635.946 637.36 635.42 636.5C634.766 635.433 634.616 634.25 634.97 632.95C635.01 632.803 635.017 632.65 634.989 632.5C634.961 632.351 634.9 632.211 634.81 632.09C634.536 631.71 634.383 631.293 634.35 630.84C634.223 628.747 634.02 626.723 633.74 624.77C633.626 623.937 633.733 623.107 634.06 622.28C634.213 621.893 634.123 621.58 633.79 621.34C633.3 620.98 632.95 620.36 633.07 619.75C633.256 618.75 633.303 617.747 633.21 616.74C633.156 616.153 632.873 615.733 632.36 615.48C632.006 615.307 631.916 615.043 632.09 614.69C632.15 614.57 632.23 614.463 632.33 614.37C632.623 614.077 632.72 613.727 632.62 613.32C632.006 610.693 631.583 608.12 631.35 605.6C631.21 604.027 631.476 603.953 632.15 605.38C632.4 605.9 632.81 606.41 632.87 607C633.263 610.653 633.676 614.353 634.11 618.1C634.15 618.413 634.266 618.693 634.46 618.94C635 619.62 635.066 620.333 634.66 621.08C634.506 621.367 634.486 621.663 634.6 621.97Z" fill="black"/>
<path d="M623.6 614.96C623.632 614.964 623.662 614.974 623.69 614.989C623.718 615.005 623.742 615.026 623.762 615.051C623.781 615.076 623.796 615.105 623.804 615.136C623.812 615.166 623.814 615.198 623.81 615.23L623.79 615.36C623.724 615.846 623.638 616.324 623.537 616.767C623.437 617.211 623.324 617.61 623.205 617.944C623.086 618.277 622.964 618.538 622.845 618.71C622.725 618.883 622.612 618.964 622.51 618.95L622.45 618.94C622.247 618.904 622.106 618.484 622.058 617.772C622.009 617.061 622.057 616.115 622.19 615.14L622.2 615.01C622.204 614.978 622.214 614.948 622.229 614.92C622.245 614.892 622.266 614.868 622.291 614.848C622.316 614.829 622.345 614.815 622.376 614.806C622.406 614.798 622.439 614.796 622.47 614.8L623.6 614.96Z" fill="black"/>
<path d="M628.97 620.22L628.95 622.65C628.95 623.15 628.723 623.293 628.27 623.08C626.86 622.42 626.81 620.33 628.26 619.74C628.339 619.709 628.423 619.698 628.507 619.707C628.591 619.717 628.671 619.746 628.741 619.793C628.811 619.841 628.868 619.904 628.908 619.978C628.948 620.053 628.969 620.136 628.97 620.22Z" fill="black"/>
<path d="M622.29 624.13C622.13 623.116 622.126 622.15 622.28 621.23C622.38 620.643 622.626 620.576 623.02 621.03L623.4 621.46C623.539 621.62 623.627 621.817 623.654 622.027C623.68 622.237 623.644 622.45 623.55 622.64C622.97 623.833 622.85 624.993 623.19 626.12C623.53 627.26 623.703 628.426 623.71 629.62C623.73 632.713 623.7 635.8 623.62 638.88C623.613 638.993 623.553 639.053 623.44 639.06L623.04 639.07C622.873 639.083 622.78 639.003 622.76 638.83C622.38 634.73 622.276 630.716 622.45 626.79C622.483 625.876 622.43 624.99 622.29 624.13Z" fill="black"/>
<path d="M628.059 628.6C628.003 628.601 627.947 628.592 627.894 628.571C627.841 628.551 627.793 628.52 627.752 628.481C627.712 628.442 627.679 628.396 627.656 628.344C627.633 628.292 627.621 628.237 627.619 628.18L627.609 627.84C627.604 627.573 627.622 627.308 627.664 627.06C627.706 626.813 627.77 626.587 627.852 626.397C627.935 626.206 628.035 626.054 628.146 625.95C628.257 625.846 628.377 625.792 628.499 625.79H628.879C629.126 625.786 629.366 625.996 629.548 626.373C629.73 626.749 629.838 627.263 629.849 627.8L629.859 628.14C629.861 628.197 629.851 628.253 629.831 628.305C629.81 628.358 629.78 628.406 629.741 628.447C629.702 628.488 629.655 628.521 629.603 628.544C629.552 628.566 629.496 628.579 629.439 628.58L628.059 628.6Z" fill="black"/>
<path d="M629.79 632.46C629.774 632.513 629.748 632.561 629.713 632.603C629.678 632.645 629.635 632.679 629.587 632.705C629.538 632.73 629.485 632.745 629.431 632.749C629.377 632.754 629.322 632.747 629.27 632.73L629.19 632.7C628.984 632.635 628.792 632.533 628.626 632.399C628.459 632.265 628.32 632.102 628.218 631.92C628.116 631.738 628.052 631.54 628.03 631.337C628.008 631.135 628.028 630.932 628.09 630.74L628.21 630.38C628.335 629.995 628.619 629.678 629 629.5C629.381 629.322 629.826 629.297 630.24 629.43L630.32 629.45C630.372 629.466 630.421 629.492 630.463 629.527C630.505 629.562 630.539 629.605 630.564 629.654C630.589 629.702 630.605 629.755 630.609 629.809C630.613 629.864 630.607 629.918 630.59 629.97L629.79 632.46Z" fill="black"/>
<path d="M629.83 638.929C630.323 638.903 630.653 639.109 630.82 639.549C631 640.016 630.856 640.339 630.39 640.519L629.54 640.839C629.02 641.039 628.806 640.866 628.9 640.319C629.16 638.799 629.093 637.279 628.7 635.759C628.662 635.609 628.658 635.453 628.687 635.301C628.717 635.148 628.779 635.005 628.87 634.879L629.05 634.639C629.33 634.259 629.566 634.286 629.76 634.719L630.67 636.829C630.87 637.283 630.776 637.656 630.39 637.949L629.68 638.499C629.273 638.806 629.323 638.949 629.83 638.929Z" fill="black"/>
<path d="M635.23 639.93C635.172 639.663 635.216 639.384 635.353 639.147C635.49 638.911 635.71 638.733 635.97 638.65L636.29 638.55C636.797 638.39 637.063 638.573 637.09 639.1L637.27 642.48C637.279 642.664 637.222 642.845 637.11 642.99C636.998 643.135 636.838 643.234 636.66 643.27C636.533 643.297 636.407 643.287 636.28 643.24C636.053 643.16 635.913 643 635.86 642.76L635.23 639.93Z" fill="black"/>
<path d="M630.789 642.37C631.329 643.55 631.383 644.574 630.949 645.44C630.496 646.334 630.146 646.294 629.899 645.32L629.459 643.61C629.405 643.399 629.408 643.176 629.47 642.965C629.531 642.754 629.649 642.562 629.809 642.41L629.999 642.22C630.333 641.907 630.596 641.957 630.789 642.37Z" fill="black"/>
<path d="M623.345 644.858L623.045 644.871C622.758 644.883 622.535 645.125 622.547 645.412L622.994 656.083C623.006 656.37 623.249 656.593 623.536 656.581L623.835 656.568C624.122 656.556 624.345 656.314 624.333 656.027L623.886 645.356C623.874 645.069 623.632 644.846 623.345 644.858Z" fill="black"/>
<path d="M636.792 644.73L636.354 644.775C636.046 644.807 635.823 645.082 635.854 645.39L636.253 649.249C636.285 649.557 636.56 649.781 636.868 649.749L637.306 649.704C637.613 649.672 637.837 649.397 637.805 649.089L637.406 645.23C637.374 644.922 637.099 644.698 636.792 644.73Z" fill="black"/>
<path d="M630.34 651.11C630.236 651.118 630.132 651.085 630.051 651.018C629.971 650.95 629.92 650.854 629.91 650.75L629.87 650.29C629.843 649.994 629.838 649.699 629.854 649.422C629.871 649.145 629.909 648.891 629.966 648.675C630.024 648.459 630.1 648.284 630.19 648.161C630.279 648.039 630.382 647.97 630.49 647.96L630.83 647.93C631.049 647.911 631.281 648.13 631.474 648.539C631.667 648.948 631.806 649.513 631.86 650.11L631.9 650.56C631.906 650.612 631.901 650.666 631.886 650.716C631.87 650.767 631.845 650.814 631.812 650.855C631.778 650.896 631.737 650.93 631.69 650.955C631.644 650.979 631.593 650.995 631.54 651L630.34 651.11Z" fill="black"/>
<path d="M632 656.9C632.053 656.793 632.14 656.72 632.26 656.68C632.586 656.586 632.79 656.706 632.87 657.04C633.11 658.093 632.703 658.936 631.65 659.57C631.11 659.89 630.833 659.736 630.82 659.11C630.82 658.856 630.873 658.606 630.98 658.36C631.153 657.966 631.166 657.563 631.02 657.15C630.54 655.776 630.58 654.28 631.14 652.66C631.293 652.226 631.453 652.223 631.62 652.65L632.3 654.41C632.393 654.645 632.401 654.906 632.322 655.147C632.244 655.388 632.084 655.594 631.87 655.73C631.43 656.01 631.283 656.38 631.43 656.84C631.576 657.3 631.766 657.32 632 656.9Z" fill="black"/>
<path d="M637.65 652.85C637.715 652.841 637.78 652.858 637.833 652.898C637.885 652.937 637.92 652.995 637.93 653.06L638.02 653.75C638.069 654.132 638.099 654.512 638.109 654.869C638.118 655.226 638.108 655.552 638.077 655.829C638.046 656.106 637.996 656.328 637.93 656.483C637.863 656.637 637.782 656.721 637.69 656.73L637.5 656.76C637.409 656.774 637.308 656.712 637.205 656.578C637.102 656.445 636.997 656.241 636.898 655.98C636.798 655.719 636.706 655.405 636.626 655.056C636.545 654.708 636.479 654.332 636.43 653.95L636.34 653.27C636.336 653.237 636.338 653.204 636.347 653.172C636.356 653.14 636.371 653.11 636.391 653.084C636.412 653.058 636.437 653.036 636.466 653.02C636.495 653.004 636.527 652.994 636.56 652.99L637.65 652.85Z" fill="black"/>
<path d="M638.47 661.59C638.563 661.956 638.67 662.33 638.79 662.71C639.01 663.396 638.83 663.526 638.25 663.1C636.956 662.153 636.616 660.873 637.23 659.26C637.271 659.153 637.341 659.059 637.431 658.987C637.522 658.916 637.629 658.869 637.743 658.853C637.857 658.837 637.973 658.851 638.08 658.895C638.186 658.938 638.279 659.009 638.35 659.1C638.73 659.593 638.8 660.1 638.56 660.62C638.413 660.933 638.383 661.256 638.47 661.59Z" fill="black"/>
<path d="M623.43 660.394C623.21 660.895 623.323 661.429 623.682 661.586C624.041 661.744 624.51 661.466 624.73 660.965C624.95 660.464 624.837 659.931 624.478 659.773C624.119 659.616 623.65 659.894 623.43 660.394Z" fill="black"/>
<path d="M632.99 665.86C633.55 667.347 633.866 668.857 633.94 670.39C633.944 670.454 633.935 670.519 633.912 670.579C633.89 670.64 633.855 670.695 633.81 670.742C633.765 670.789 633.711 670.826 633.651 670.852C633.59 670.877 633.525 670.89 633.46 670.89L633.1 670.88C632.872 670.878 632.653 670.787 632.491 670.626C632.329 670.466 632.235 670.248 632.23 670.02L632.05 664.66C632.043 664.274 631.966 663.897 631.82 663.53C631.526 662.797 631.54 662.077 631.86 661.37C632.193 660.65 632.54 660.644 632.9 661.35C633.513 662.537 633.557 663.687 633.03 664.8C632.87 665.147 632.856 665.5 632.99 665.86Z" fill="black"/>
<path d="M638.91 666.54C639.277 667.84 639.32 669.147 639.04 670.46C639.022 670.54 638.989 670.616 638.941 670.683C638.894 670.75 638.833 670.807 638.763 670.85C638.693 670.893 638.615 670.921 638.534 670.933C638.452 670.945 638.37 670.941 638.29 670.92L637.9 670.81C637.811 670.787 637.727 670.746 637.654 670.69C637.58 670.634 637.519 670.564 637.473 670.484C637.428 670.403 637.398 670.315 637.388 670.223C637.377 670.132 637.384 670.039 637.41 669.95C637.837 668.51 637.893 667.15 637.58 665.87C637.29 664.7 638.16 663.99 639.16 663.74C639.244 663.717 639.333 663.717 639.417 663.739C639.501 663.761 639.579 663.805 639.642 663.866C639.705 663.927 639.752 664.004 639.778 664.088C639.804 664.173 639.808 664.263 639.79 664.35C639.69 664.837 639.473 665.253 639.14 665.6C638.887 665.867 638.81 666.18 638.91 666.54Z" fill="black"/>
</g>
<defs>
<clipPath id="clip0_93_2672">
<rect width="1024" height="1024" fill="white"/>
</clipPath>
</defs>
</svg>
